<?xml version="1.0" standalone="no"?>
<!DOCTYPE svg PUBLIC "-//W3C//DTD SVG 20010904//EN"
 "http://www.w3.org/TR/2001/REC-SVG-20010904/DTD/svg10.dtd">
<svg version="1.0" xmlns="http://www.w3.org/2000/svg"
 width="512.000000pt" height="512.000000pt" viewBox="0 0 512.000000 512.000000"
 preserveAspectRatio="xMidYMid meet">
<metadata>
Created by potrace 1.14, written by Peter Selinger 2001-2017
</metadata>
<g transform="translate(0.000000,512.000000) scale(0.100000,-0.100000)"
fill="#000000" stroke="none">
<path d="M0 2560 l0 -2560 2560 0 2560 0 0 2560 0 2560 -2560 0 -2560 0 0
-2560z m3867 1124 c265 -87 482 -161 483 -164 0 -8 -1129 -315 -1135 -309 -3
4 5 52 19 107 l24 102 -575 0 -575 0 -27 -28 c-31 -30 -56 -124 -141 -522 -23
-107 -46 -211 -51 -230 l-9 -35 -532 -131 c-293 -72 -536 -129 -539 -128 -3 2
49 225 116 496 83 337 130 510 150 548 36 70 125 157 197 192 133 65 81 62
1107 68 l934 5 14 60 c25 112 34 136 46 132 7 -2 229 -75 494 -163z m292 -790
c-77 -323 -130 -527 -146 -558 -34 -66 -115 -146 -184 -180 -130 -63 -73 -60
-1123 -66 l-959 -5 -94 -400 c-51 -220 -95 -406 -98 -413 -3 -7 -180 207 -401
483 -218 273 -394 498 -392 499 5 5 1092 275 1095 273 1 -2 -9 -45 -22 -97
-14 -52 -25 -101 -25 -107 0 -10 123 -13 580 -13 l581 0 22 23 c18 17 32 62
60 192 21 94 60 264 86 380 l48 210 544 156 c381 110 545 153 547 144 2 -7
-52 -241 -119 -521z"/>
</g>
</svg>
